<svg width="40" height="40" viewBox="0 0 40 40" fill="none" xmlns="http://www.w3.org/2000/svg">
<path d="M20 21.8182C21.0042 21.8182 21.8182 21.0042 21.8182 20C21.8182 18.9959 21.0042 18.1818 20 18.1818C18.9959 18.1818 18.1819 18.9959 18.1819 20C18.1819 21.0042 18.9959 21.8182 20 21.8182Z" fill="#F15B40"/>
<path d="M29.0909 21.8182C30.0951 21.8182 30.9091 21.0042 30.9091 20C30.9091 18.9959 30.0951 18.1818 29.0909 18.1818C28.0868 18.1818 27.2727 18.9959 27.2727 20C27.2727 21.0042 28.0868 21.8182 29.0909 21.8182Z" fill="#F15B40"/>
<path d="M10.9092 21.8182C11.9133 21.8182 12.7273 21.0042 12.7273 20C12.7273 18.9959 11.9133 18.1818 10.9092 18.1818C9.905 18.1818 9.09097 18.9959 9.09097 20C9.09097 21.0042 9.905 21.8182 10.9092 21.8182Z" fill="#F15B40"/>
<path d="M20 1.02509e-05C16.4698 -0.00356523 13.0017 0.928257 9.94871 2.70063C6.89569 4.473 4.36677 7.02264 2.61936 10.09C0.871959 13.1574 -0.0315371 16.633 0.000840585 20.163C0.0332183 23.6931 1.00031 27.1515 2.80369 30.1863L1.83242 37.9563C1.80066 38.2121 1.8236 38.4717 1.89973 38.7179C1.97585 38.9641 2.10341 39.1914 2.27397 39.3846C2.44453 39.5778 2.65419 39.7326 2.88907 39.8387C3.12395 39.9448 3.37869 39.9997 3.63641 40C3.78521 40.0003 3.93346 39.982 4.07769 39.9454L11.4968 38.0909C14.1536 39.3527 17.0588 40.005 20 40C25.3043 40 30.3914 37.8928 34.1421 34.1421C37.8929 30.3914 40 25.3043 40 20C40 14.6957 37.8929 9.60859 34.1421 5.85787C30.3914 2.10714 25.3043 1.02509e-05 20 1.02509e-05ZM20 36.3636C17.4017 36.3669 14.8409 35.7438 12.5346 34.5472C12.2771 34.4154 11.992 34.3469 11.7028 34.3472C11.554 34.3469 11.4057 34.3652 11.2615 34.4018L5.77059 35.7743L6.49095 30.0018C6.54406 29.5804 6.44754 29.1537 6.21823 28.7962C4.26771 25.7339 3.39177 22.1096 3.72847 18.4946C4.06518 14.8795 5.59539 11.4793 8.07789 8.82997C10.5604 6.18061 13.854 4.43276 17.4395 3.86193C21.0251 3.2911 24.6986 3.92976 27.8811 5.67723C31.0636 7.4247 33.574 10.1816 35.0167 13.5134C36.4593 16.8451 36.7522 20.5623 35.849 24.0788C34.9459 27.5954 32.8981 30.7114 30.0285 32.9356C27.1589 35.1599 23.6307 36.3659 20 36.3636Z" fill="#F15B40"/>
</svg>
