<svg width="31" height="31" viewBox="0 0 31 31" fill="none" xmlns="http://www.w3.org/2000/svg">
<g clip-path="url(#clip0)">
<path fill-rule="evenodd" clip-rule="evenodd" d="M19.3953 10.0042L17.9834 10.0051C16.8762 10.0051 16.6616 10.531 16.6616 11.3026V13.0051H19.3025L18.9584 15.6723H16.6616V22.5142H13.9081V15.6723H11.6056V13.0051H13.9081V11.0392C13.9081 8.75635 15.3022 7.51416 17.3375 7.51416C18.3125 7.51416 19.1506 7.58635 19.3953 7.61916V10.0042ZM15.5 0.0141602C7.21625 0.0141602 0.5 6.72947 0.5 15.0142C0.5 23.2979 7.21625 30.0142 15.5 30.0142C23.7847 30.0142 30.5 23.2979 30.5 15.0142C30.5 6.72947 23.7847 0.0141602 15.5 0.0141602Z" fill="#3B5998"/>
</g>
<defs>
<clipPath id="clip0">
<rect width="30" height="30" fill="white" transform="translate(0.5 0.0141602)"/>
</clipPath>
</defs>
</svg>
