<svg width="40" height="48" viewBox="0 0 40 48" fill="none" xmlns="http://www.w3.org/2000/svg">
<g clip-path="url(#clip0)" filter="url(#filter0_d)">
<path d="M33.3333 36.6667H31.6667V28.0908C31.6709 26.8518 31.3279 25.6364 30.6767 24.5824C30.0254 23.5283 29.0918 22.6779 27.9818 22.1273L23.7272 20L27.9818 17.8727C29.092 17.3224 30.0258 16.472 30.6771 15.4179C31.3284 14.3638 31.6713 13.1482 31.6667 11.9092V3.33333H33.3333C33.7754 3.33333 34.1993 3.15774 34.5118 2.84518C34.8244 2.53262 35 2.10869 35 1.66667C35 1.22464 34.8244 0.800716 34.5118 0.488155C34.1993 0.175595 33.7754 0 33.3333 0L6.66667 0C6.22464 0 5.80072 0.175595 5.48816 0.488155C5.17559 0.800716 5 1.22464 5 1.66667C5 2.10869 5.17559 2.53262 5.48816 2.84518C5.80072 3.15774 6.22464 3.33333 6.66667 3.33333H8.33333V11.9092C8.32909 13.1482 8.67205 14.3636 9.32333 15.4176C9.97462 16.4717 10.9082 17.3221 12.0182 17.8727L16.2728 20L12.0182 22.1273C10.908 22.6776 9.9742 23.528 9.32288 24.5821C8.67156 25.6362 8.32874 26.8518 8.33333 28.0908V36.6667H6.66667C6.22464 36.6667 5.80072 36.8423 5.48816 37.1548C5.17559 37.4674 5 37.8913 5 38.3333C5 38.7754 5.17559 39.1993 5.48816 39.5118C5.80072 39.8244 6.22464 40 6.66667 40H33.3333C33.7754 40 34.1993 39.8244 34.5118 39.5118C34.8244 39.1993 35 38.7754 35 38.3333C35 37.8913 34.8244 37.4674 34.5118 37.1548C34.1993 36.8423 33.7754 36.6667 33.3333 36.6667ZM28.3333 3.33333V10H11.6667V3.33333H28.3333ZM12.0167 13.3333H27.9833C27.6748 14.0056 27.1489 14.5543 26.4903 14.891L20 18.1363L13.5092 14.891C12.8508 14.5542 12.3251 14.0055 12.0167 13.3333ZM13.5097 25.109L20 21.8637L26.4908 25.109C27.0458 25.3843 27.5125 25.8096 27.8382 26.3366C28.1638 26.8636 28.3353 27.4713 28.3333 28.0908V28.3333H11.6667V28.0908C11.6647 27.4713 11.8362 26.8636 12.1618 26.3366C12.4875 25.8096 12.9542 25.3843 13.5092 25.109H13.5097ZM11.6667 36.6667V31.6667H28.3333V36.6667H11.6667Z" fill="#F15B40"/>
</g>
<defs>
<filter id="filter0_d" x="-4" y="0" width="48" height="48" filterUnits="userSpaceOnUse" color-interpolation-filters="sRGB">
<feFlood flood-opacity="0" result="BackgroundImageFix"/>
<feColorMatrix in="SourceAlpha" type="matrix" values="0 0 0 0 0 0 0 0 0 0 0 0 0 0 0 0 0 0 127 0" result="hardAlpha"/>
<feOffset dy="4"/>
<feGaussianBlur stdDeviation="2"/>
<feComposite in2="hardAlpha" operator="out"/>
<feColorMatrix type="matrix" values="0 0 0 0 0 0 0 0 0 0 0 0 0 0 0 0 0 0 0.25 0"/>
<feBlend mode="normal" in2="BackgroundImageFix" result="effect1_dropShadow"/>
<feBlend mode="normal" in="SourceGraphic" in2="effect1_dropShadow" result="shape"/>
</filter>
<clipPath id="clip0">
<rect width="40" height="40" fill="white"/>
</clipPath>
</defs>
</svg>
