<svg width="40" height="40" viewBox="0 0 40 40" fill="none" xmlns="http://www.w3.org/2000/svg">
<g clip-path="url(#clip0)">
<path d="M31.7855 4.88117C30.2394 3.33193 28.4033 2.10239 26.382 1.26274C24.3608 0.423094 22.1939 -0.0102139 20.0052 -0.0124425C15.5849 -0.0169434 11.3438 1.73471 8.21497 4.85717C5.08614 7.97963 3.32586 12.2171 3.32136 16.6374C3.31686 21.0578 5.06851 25.2988 8.19097 28.4277L18.7971 39.4873C18.9527 39.6495 19.1394 39.7786 19.3461 39.8667C19.5528 39.9549 19.7752 40.0003 20 40.0003C20.2247 40.0003 20.4471 39.9549 20.6538 39.8667C20.8605 39.7786 21.0473 39.6495 21.2028 39.4873L31.7861 28.4522C34.9073 25.324 36.6602 21.0855 36.66 16.6665C36.6599 12.2476 34.9068 8.00914 31.7855 4.88117ZM29.4043 26.1198L20 35.9262L10.5721 26.0953C8.70647 24.2296 7.43631 21.8522 6.92246 19.2642C6.40861 16.6762 6.67416 13.9939 7.6855 11.5569C8.69684 9.11987 10.4085 7.03771 12.6038 5.57398C14.7991 4.11025 17.3793 3.33076 20.0178 3.3342C22.6564 3.33763 25.2346 4.12383 27.426 5.59326C29.6175 7.0627 31.3238 9.14931 32.3288 11.5889C33.3338 14.0286 33.5923 16.7115 33.0717 19.2982C32.5512 21.8849 31.2748 24.2589 29.4043 26.1198Z" fill="#F15B40"/>
<path d="M20 8.33337C18.3518 8.33337 16.7406 8.82212 15.3702 9.73779C13.9998 10.6535 12.9317 11.955 12.301 13.4777C11.6702 15.0004 11.5052 16.676 11.8268 18.2925C12.1483 19.909 12.942 21.3938 14.1074 22.5593C15.2728 23.7247 16.7577 24.5184 18.3742 24.8399C19.9907 25.1615 21.6663 24.9964 23.189 24.3657C24.7117 23.735 26.0132 22.6669 26.9289 21.2965C27.8446 19.9261 28.3333 18.3149 28.3333 16.6667C28.3307 14.4574 27.4519 12.3393 25.8896 10.777C24.3274 9.21479 22.2093 8.33598 20 8.33337ZM20 21.6667C19.0111 21.6667 18.0444 21.3735 17.2221 20.8241C16.3999 20.2746 15.759 19.4938 15.3806 18.5801C15.0021 17.6665 14.9031 16.6612 15.096 15.6913C15.289 14.7214 15.7652 13.8304 16.4644 13.1312C17.1637 12.4319 18.0546 11.9557 19.0245 11.7628C19.9944 11.5699 20.9998 11.6689 21.9134 12.0473C22.827 12.4257 23.6079 13.0666 24.1573 13.8889C24.7067 14.7111 25 15.6778 25 16.6667C24.9985 17.9923 24.4713 19.2633 23.5339 20.2006C22.5965 21.138 21.3256 21.6653 20 21.6667Z" fill="#F15B40"/>
</g>
<defs>
<clipPath id="clip0">
<rect width="40" height="40" fill="white"/>
</clipPath>
</defs>
</svg>
