<svg width="50" height="50" viewBox="0 0 50 50" fill="none" xmlns="http://www.w3.org/2000/svg">
<path d="M40.869 24.8738C39.7304 21.9855 37.7905 19.5077 35.2467 17.7024C32.7049 15.8986 29.7259 14.891 26.6086 14.7758C26.2049 13.7945 25.1972 13.1431 24.0855 13.2408L23.34 13.3064C22.9663 12.3721 22.4024 11.4968 21.647 10.7414C20.91 10.0045 20.1732 9.26761 19.4362 8.53068L20.2998 7.66712C20.9697 6.99721 19.9335 5.96112 19.2635 6.63094L18.4001 7.49439C17.6632 6.75755 16.9264 6.02052 16.1893 5.28378C14.8539 3.94835 13.0992 3.16334 11.2231 3.05265L9.9519 1.76548C9.37538 1.18163 8.46181 1.00754 7.70748 1.34635C7.30526 0.935631 6.82497 0.573366 6.30229 0.333615C5.44128 -0.0613779 4.83017 1.27064 5.69129 1.66563C6.01828 1.81569 6.31313 2.02184 6.56793 2.27849L6.57487 2.28552L2.3163 6.50295C1.20841 5.31133 1.1495 3.43142 2.33223 2.26012C2.4818 2.11182 2.64877 1.97846 2.82834 1.86347C3.62624 1.35261 2.83606 0.118387 2.03816 0.62925C1.77173 0.799733 1.52368 0.998157 1.30093 1.21886C-0.441128 2.94411 -0.451093 5.95741 1.37664 7.63645C1.05952 8.36527 1.19385 9.24622 1.78531 9.84511L3.11381 11.1903C3.22919 13.0568 4.00941 14.7959 5.34328 16.1297L7.554 18.3404L6.69044 19.204C6.02053 19.8739 7.05671 20.91 7.72673 20.2402L8.59028 19.3766C9.32712 20.1135 10.064 20.8504 10.8009 21.5872C11.5456 22.3319 12.4169 22.903 13.3656 23.2838L13.3003 24.0259C13.2025 25.1373 13.854 26.145 14.8353 26.5489C14.953 29.7425 16.0041 32.7823 17.8879 35.3622C19.7512 37.9141 22.2867 39.8305 25.2316 40.923C26.8719 46.0312 31.6676 49.7388 37.3135 49.7388C44.3089 49.7388 50 44.0477 50 37.0523C50 31.291 46.1392 26.4149 40.869 24.8738ZM39.108 24.4935C38.5216 24.41 37.9227 24.366 37.3135 24.366C34.0277 24.366 31.0298 25.6218 28.7741 27.6784L24.2483 23.1526C24.7457 22.2115 24.5991 21.0165 23.8079 20.2253L23.1132 19.5307C23.3097 19.1278 23.4695 18.7115 23.5912 18.2862L24.5222 18.2042C25.6352 18.1063 26.5145 17.2868 26.7393 16.248C29.5033 16.3849 32.1412 17.2954 34.3986 18.8975C36.4354 20.343 38.0463 22.2625 39.108 24.4935ZM22.7717 22.7122C22.7716 22.7123 22.7716 22.7124 22.7715 22.7125C22.3715 23.1123 21.7209 23.1122 21.321 22.7123L20.8725 22.2637C21.4186 21.8457 21.9053 21.3589 22.3224 20.8122L22.7717 21.2615C23.1717 21.6614 23.1717 22.312 22.7719 22.712C22.7717 22.712 22.7717 22.7121 22.7717 22.7122ZM24.214 14.7006C24.7783 14.6513 25.2761 15.069 25.3259 15.6325C25.3754 16.196 24.9574 16.6948 24.3938 16.7443L23.8624 16.7911C23.918 16.1071 23.8835 15.4171 23.7566 14.7409L24.214 14.7006ZM20.6107 20.5512C19.439 21.7229 17.8811 22.3683 16.2239 22.3683C14.7054 22.3683 13.2711 21.825 12.14 20.8327L20.892 12.0807C23.024 14.5147 22.9313 18.2306 20.6107 20.5512ZM15.8971 7.06423L17.3637 8.53077L8.59018 17.3043L7.12364 15.8377L15.8971 7.06423ZM9.62647 18.3405L18.4 9.56706L19.8665 11.0336L11.093 19.8071L9.62647 18.3405ZM2.83215 8.05606L8.14869 2.79101C8.35962 2.58204 8.70029 2.58389 8.90917 2.79522L9.89357 3.79203L3.81343 9.81335L2.82795 8.81537C2.62005 8.60493 2.622 8.26416 2.83215 8.05606ZM4.57753 11.1191L11.2396 4.52154C12.581 4.62295 13.8397 5.15306 14.8501 6.03869L6.0981 14.7907C5.19615 13.7627 4.66653 12.4839 4.57753 11.1191ZM14.76 24.1544L14.8 23.7009C15.4712 23.8263 16.1698 23.8613 16.8504 23.8065L16.8039 24.3343C16.7542 24.8979 16.2534 25.3151 15.692 25.2663C15.1285 25.2167 14.7105 24.7179 14.76 24.1544ZM19.0714 34.4981C17.3974 32.2054 16.4477 29.5121 16.3077 26.6791C17.3463 26.4541 18.1658 25.5755 18.2636 24.4627L18.3451 23.536C18.7749 23.413 19.192 23.2528 19.5928 23.0565L20.2846 23.7484C20.7552 24.2189 21.3809 24.4781 22.0463 24.4781C22.4597 24.4781 22.8576 24.378 23.2127 24.1894L27.7495 28.7263C25.8058 30.9561 24.6269 33.8692 24.6269 37.0524C24.6269 37.772 24.6881 38.4774 24.8038 39.1645C22.5284 38.1352 20.563 36.5409 19.0714 34.4981ZM37.3135 48.2735C31.1262 48.2735 26.0925 43.2398 26.0925 37.0524C26.0925 30.8651 31.1262 25.8314 37.3135 25.8314C43.5008 25.8314 48.5345 30.8651 48.5345 37.0524C48.5345 43.2398 43.5008 48.2735 37.3135 48.2735Z" fill="#F15B40"/>
</svg>
