<svg width="43" height="50" viewBox="0 0 43 50" fill="none" xmlns="http://www.w3.org/2000/svg">
<path d="M40.2516 21.4424V12.6631C40.2516 9.33486 37.7444 6.58301 34.5137 6.19209V3.7959C34.5137 1.70283 32.809 0 30.7136 0C28.6182 0 26.9135 1.70283 26.9135 3.7959V4.9209C26.9135 5.57695 26.3785 6.11074 25.721 6.11074H24.4768C24.5775 4.83584 23.6758 3.64541 22.3393 3.64541H20.2752C18.9386 3.64541 18.0369 4.83594 18.1377 6.11074H16.8935C16.2359 6.11074 15.701 5.57695 15.701 4.9209V3.7959C15.701 1.70283 13.9963 0 11.9009 0C9.80547 0 8.10078 1.70283 8.10078 3.7959V6.19131C4.87324 6.57939 2.36289 9.33272 2.36289 12.6631V21.4424C1.03955 21.5653 0 22.6815 0 24.0365V24.6893C0 26.0442 1.03955 27.1604 2.36289 27.2834V35.6505C2.36289 37.2571 3.55762 38.5893 5.10518 38.807V40.0415C5.10518 40.552 5.33613 41.0091 5.69834 41.3155C5.25713 41.9529 5.01484 42.7131 5.01484 43.5109C5.01484 45.399 7.75967 49.013 8.30996 49.7183C8.69492 50.0941 9.07988 50.0941 9.46484 49.7183C10.0151 49.013 12.76 45.399 12.76 43.5109C12.76 42.7111 12.5177 41.952 12.0766 41.3153C12.4387 41.0089 12.6695 40.5519 12.6695 40.0415V38.807C14.2171 38.5893 15.4118 37.2571 15.4118 35.6505V33.7015C17.1311 34.7498 19.1498 35.3544 21.3073 35.3544C23.4648 35.3544 25.4836 34.7497 27.2028 33.7015V35.6505C27.2028 37.2571 28.3976 38.5893 29.9451 38.807V40.0415C29.9451 40.552 30.1761 41.0091 30.5383 41.3155C30.0971 41.9531 29.8547 42.7136 29.8547 43.5109C29.8547 45.399 32.5995 49.013 33.1498 49.7183C33.5348 50.0941 33.9197 50.0941 34.3047 49.7183C34.855 49.013 37.5998 45.399 37.5998 43.5109C37.5998 42.7135 37.3574 41.9531 36.9163 41.3155C37.2785 41.0091 37.5095 40.5521 37.5095 40.0415V38.807C39.057 38.5893 40.2518 37.2571 40.2518 35.6505V33.4961C40.2518 33.0916 39.9238 32.7637 39.5193 32.7637C39.1148 32.7637 38.7869 33.0916 38.7869 33.4961V35.6504C38.7869 36.6008 38.0138 37.3739 37.0634 37.3739C34.8394 37.3739 32.6154 37.3739 30.3914 37.3739C29.441 37.3739 28.6679 36.6008 28.6679 35.6504V32.6394C30.3012 31.2459 31.5348 29.3987 32.1716 27.295H38.787V29.6875C38.787 30.092 39.1149 30.4199 39.5194 30.4199C39.9239 30.4199 40.2519 30.092 40.2519 29.6875V27.2833C41.5752 27.1604 42.6147 26.0441 42.6147 24.6892V24.0364C42.6146 22.6815 41.5749 21.5653 40.2516 21.4424ZM33.7271 48.0461C32.5856 46.4652 31.3195 44.3802 31.3195 43.5108C31.3195 42.817 31.6146 42.1676 32.1327 41.7105H35.3219C35.8399 42.1676 36.135 42.8169 36.135 43.5108C36.1349 44.379 34.8685 46.4645 33.7271 48.0461ZM36.0445 38.8388V40.0413C36.0445 40.1539 35.9529 40.2456 35.8402 40.2456H31.6142C31.5016 40.2456 31.4099 40.154 31.4099 40.0413V38.8388H36.0445ZM38.7867 12.663V21.4306H32.3552C31.7941 19.0438 30.4755 16.9457 28.6677 15.4033V12.663C28.6677 9.87539 30.9356 7.60742 33.7312 7.60742C36.5188 7.60742 38.7867 9.87539 38.7867 12.663ZM25.7211 7.57549C27.1863 7.57549 28.3784 6.38457 28.3784 4.9208V3.7959C28.3784 2.51055 29.426 1.46484 30.7137 1.46484C32.0014 1.46484 33.0489 2.51055 33.0489 3.7959V6.17744C29.7692 6.51602 27.2028 9.29531 27.2028 12.663V14.3414C26.36 13.8274 25.4448 13.4206 24.4769 13.139V7.57549H25.7211ZM20.2753 5.11016H22.3394C22.7103 5.11016 23.012 5.41191 23.012 5.78281V12.8164C21.8841 12.646 20.7306 12.646 19.6026 12.8164V5.78281C19.6026 5.41191 19.9044 5.11016 20.2753 5.11016ZM11.901 1.46484C13.1887 1.46484 14.2362 2.51055 14.2362 3.7959V4.9209C14.2362 6.38467 15.4283 7.57559 16.8936 7.57559H18.1378V13.1391C17.1698 13.4207 16.2548 13.8275 15.4118 14.3415V12.6631C15.4118 9.29766 12.8488 6.51992 9.56572 6.17832V3.7959C9.56582 2.51055 10.6134 1.46484 11.901 1.46484ZM8.89141 7.60742C11.679 7.60742 13.947 9.87539 13.947 12.663V15.4033C12.1392 16.9457 10.8205 19.0438 10.2595 21.4306H3.82793V12.663C3.82793 9.87539 6.0958 7.60742 8.89141 7.60742ZM1.46494 24.6892V24.0364C1.46494 23.4073 1.97676 22.8954 2.60596 22.8954H10.0159C9.9792 23.2658 9.95996 23.6413 9.95996 24.0213C9.95996 24.6369 10.0101 25.2409 10.1052 25.8301H2.60596C1.97686 25.8302 1.46494 25.3184 1.46494 24.6892ZM11.2048 40.0413C11.2048 40.1539 11.1132 40.2456 11.0005 40.2456H6.77441C6.66182 40.2456 6.57012 40.154 6.57012 40.0413V38.8388H11.2047V40.0413H11.2048ZM8.8873 48.0461C7.7459 46.4652 6.47978 44.3802 6.47978 43.5108C6.47978 42.8166 6.77461 42.1675 7.29268 41.7105H10.4821C11.0006 42.1674 11.2952 42.8147 11.2952 43.5108C11.2952 44.379 10.0288 46.4645 8.8873 48.0461ZM13.947 35.6504C13.947 36.6008 13.1738 37.3739 12.2234 37.3739C9.99941 37.3739 7.77549 37.3739 5.55147 37.3739C4.60107 37.3739 3.82793 36.6008 3.82793 35.6504V27.295H10.4434C11.0801 29.3987 12.3138 31.2459 13.9471 32.6394V35.6504H13.947ZM21.3073 33.8894C15.8581 33.8894 11.4248 29.4625 11.4248 24.0213C11.4248 18.5801 15.8581 14.1533 21.3073 14.1533C26.7565 14.1533 31.1898 18.5801 31.1898 24.0213C31.1898 29.4625 26.7565 33.8894 21.3073 33.8894ZM41.1497 24.6892C41.1497 25.3184 40.6379 25.8302 40.0087 25.8302H32.5095C32.6045 25.2409 32.6547 24.6369 32.6547 24.0214C32.6547 23.6415 32.6355 23.2659 32.5987 22.8955H40.0087C40.6378 22.8955 41.1497 23.4073 41.1497 24.0365V24.6892Z" fill="#F15B40"/>
<path d="M21.3073 17.3689C20.4816 17.3689 19.6726 17.5205 18.9024 17.8193C18.0195 18.1619 18.5493 19.5272 19.4323 19.1849C20.0329 18.9519 20.6638 18.8337 21.3074 18.8337C24.1724 18.8337 26.5032 21.1609 26.5032 24.0214C26.5032 26.882 24.1723 29.2091 21.3073 29.2091C18.4424 29.2091 16.1115 26.8819 16.1115 24.0214C16.1115 23.0866 16.3653 22.1689 16.8454 21.3677C17.3321 20.5553 16.0757 19.8027 15.5889 20.6148C14.9725 21.6434 14.6468 22.8214 14.6468 24.0214C14.6468 27.6897 17.6348 30.674 21.3074 30.674C24.9801 30.674 27.9681 27.6896 27.9681 24.0214C27.9681 20.3533 24.98 17.3689 21.3073 17.3689Z" fill="#F15B40"/>
<path d="M5.7122 13.5232C6.11669 13.5232 6.44462 13.1952 6.44462 12.7907C6.44462 11.4784 7.51415 10.4108 8.82889 10.4108C9.77587 10.4108 9.77587 8.94592 8.82889 8.94592C6.70653 8.94592 4.97977 10.6707 4.97977 12.7907C4.97977 13.1952 5.3077 13.5232 5.7122 13.5232Z" fill="#F15B40"/>
<path d="M29.8195 12.7907C29.8195 13.7377 31.2844 13.7377 31.2844 12.7907C31.2844 11.4784 32.354 10.4108 33.6687 10.4108C34.6156 10.4108 34.6156 8.94592 33.6687 8.94592C31.5462 8.94583 29.8195 10.6706 29.8195 12.7907Z" fill="#F15B40"/>
</svg>
