<svg width="50" height="50" viewBox="0 0 50 50" fill="none" xmlns="http://www.w3.org/2000/svg">
<g clip-path="url(#clip0)">
<path d="M24.7672 15.7482C25.1718 15.7801 25.5233 15.4793 25.5555 15.0762C25.5779 14.7932 25.5895 14.5073 25.5895 14.2268C25.5895 8.38879 20.84 3.63928 15.002 3.63928C9.16398 3.63928 4.41437 8.3887 4.41437 14.2268C4.41437 20.0649 9.16398 24.8144 15.002 24.8144C18.9882 24.8144 22.598 22.6107 24.4226 19.063C24.6076 18.7032 24.4658 18.2616 24.1063 18.0766C23.7466 17.8916 23.305 18.0332 23.1198 18.3929C21.5475 21.4502 18.4369 23.3494 15.002 23.3494C9.97159 23.3494 5.87921 19.2571 5.87921 14.2267C5.87921 9.19641 9.97159 5.10403 15.002 5.10403C20.0322 5.10403 24.1246 9.19641 24.1246 14.2267C24.1246 14.4687 24.1147 14.7153 24.0952 14.9598C24.0631 15.363 24.364 15.716 24.7672 15.7482Z" fill="#F15B40"/>
<path d="M18.8585 11.9761C18.6545 11.6267 18.2059 11.5091 17.8567 11.7128L16.0402 12.7729C15.4231 12.3308 14.5768 12.3319 13.9606 12.7753L11.3456 11.257C10.5265 10.7817 9.79122 12.0483 10.6102 12.5239L13.2229 14.0408C13.1162 15.0682 13.9622 16.0156 15.002 16.0156C16.0385 16.0156 16.8897 15.0664 16.7804 14.0369L18.5951 12.9778C18.9444 12.774 19.0624 12.3255 18.8585 11.9761ZM15.002 14.5508C14.8232 14.5508 14.6779 14.4054 14.6779 14.2267C14.6779 14.0481 14.8232 13.9028 15.002 13.9028C15.1806 13.9028 15.3259 14.0481 15.3259 14.2267C15.3259 14.4054 15.1806 14.5508 15.002 14.5508Z" fill="#F15B40"/>
<path d="M15.002 21.8812C15.9445 21.8812 15.9461 20.4164 15.002 20.4164C14.0594 20.4164 14.0578 21.8812 15.002 21.8812Z" fill="#F15B40"/>
<path d="M11.541 20.9537C12.4835 20.9537 12.4851 19.4889 11.541 19.4889C10.5984 19.4889 10.5968 20.9537 11.541 20.9537Z" fill="#F15B40"/>
<path d="M9.00723 18.4202C9.94981 18.4202 9.95137 16.9553 9.00723 16.9553C8.06465 16.9553 8.06318 18.4202 9.00723 18.4202Z" fill="#F15B40"/>
<path d="M8.07989 13.4944C7.13732 13.4944 7.13576 14.9592 8.07989 14.9592C9.02247 14.9592 9.02403 13.4944 8.07989 13.4944Z" fill="#F15B40"/>
<path d="M9.00726 10.0333C8.06469 10.0333 8.06312 11.4982 9.00726 11.4982C9.94984 11.4982 9.9514 10.0333 9.00726 10.0333Z" fill="#F15B40"/>
<path d="M11.541 8.9646C12.4835 8.9646 12.4851 7.49976 11.541 7.49976C10.5984 7.49976 10.5968 8.9646 11.541 8.9646Z" fill="#F15B40"/>
<path d="M15.002 6.57227C14.0594 6.57227 14.0578 8.03711 15.002 8.03711C15.9444 8.03711 15.9461 6.57227 15.002 6.57227Z" fill="#F15B40"/>
<path d="M18.463 7.49976C17.5204 7.49976 17.5189 8.9646 18.463 8.9646C19.4055 8.9646 19.407 7.49976 18.463 7.49976Z" fill="#F15B40"/>
<path d="M20.9966 10.0333C20.054 10.0333 20.0524 11.4982 20.9966 11.4982C21.9392 11.4982 21.9407 10.0333 20.9966 10.0333Z" fill="#F15B40"/>
<path d="M21.9239 13.4944C20.9814 13.4944 20.9798 14.9592 21.9239 14.9592C22.8665 14.9592 22.8681 13.4944 21.9239 13.4944Z" fill="#F15B40"/>
<path d="M20.9966 18.4202C21.9392 18.4202 21.9407 16.9553 20.9966 16.9553C20.054 16.9553 20.0524 18.4202 20.9966 18.4202Z" fill="#F15B40"/>
<path d="M18.463 20.9537C19.4056 20.9537 19.4071 19.4889 18.463 19.4889C17.5204 19.4889 17.5189 20.9537 18.463 20.9537Z" fill="#F15B40"/>
<path d="M41.0244 27.0752C39.2465 25.8391 37.1589 25.1857 34.9875 25.1857C29.1495 25.1857 24.4 29.9352 24.4 35.7732C24.4 41.6112 29.1495 46.3608 34.9875 46.3608C40.8254 46.3608 45.575 41.6112 45.575 35.7732C45.575 33.745 44.9996 31.774 43.911 30.0731C43.4006 29.2753 42.1667 30.065 42.6771 30.8627C43.6147 32.3276 44.1102 34.0256 44.1102 35.7732C44.1102 40.8035 40.0178 44.8959 34.9875 44.8959C29.9572 44.8959 25.8648 40.8035 25.8648 35.7732C25.8648 30.7429 29.9572 26.6505 34.9875 26.6505C36.8585 26.6505 38.6569 27.2133 40.1882 28.278C40.9656 28.8187 41.8019 27.6159 41.0244 27.0752Z" fill="#F15B40"/>
<path d="M34.9873 41.9628C34.0447 41.9628 34.0432 43.4276 34.9873 43.4276C35.9299 43.4276 35.9315 41.9628 34.9873 41.9628Z" fill="#F15B40"/>
<path d="M38.4484 42.5002C39.391 42.5002 39.3925 41.0354 38.4484 41.0354C37.5058 41.0354 37.5042 42.5002 38.4484 42.5002Z" fill="#F15B40"/>
<path d="M40.9821 39.9667C41.9246 39.9667 41.9262 38.5018 40.9821 38.5018C40.0395 38.5018 40.0379 39.9667 40.9821 39.9667Z" fill="#F15B40"/>
<path d="M41.9094 35.0409C40.9668 35.0409 40.9653 36.5057 41.9094 36.5057C42.852 36.5057 42.8536 35.0409 41.9094 35.0409Z" fill="#F15B40"/>
<path d="M40.9821 31.5798C40.0395 31.5798 40.0379 33.0447 40.9821 33.0447C41.9246 33.0447 41.9261 31.5798 40.9821 31.5798Z" fill="#F15B40"/>
<path d="M38.4484 29.0461C37.5058 29.0461 37.5042 30.511 38.4484 30.511C39.391 30.511 39.3925 29.0461 38.4484 29.0461Z" fill="#F15B40"/>
<path d="M34.9873 28.1188C34.0447 28.1188 34.0432 29.5836 34.9873 29.5836C35.9299 29.5836 35.9315 28.1188 34.9873 28.1188Z" fill="#F15B40"/>
<path d="M31.5263 30.511C32.4689 30.511 32.4704 29.0461 31.5263 29.0461C30.5838 29.0461 30.5823 30.511 31.5263 30.511Z" fill="#F15B40"/>
<path d="M28.9927 31.5798C28.0501 31.5798 28.0485 33.0447 28.9927 33.0447C29.9353 33.0447 29.9368 31.5798 28.9927 31.5798Z" fill="#F15B40"/>
<path d="M28.0654 35.0409C27.1228 35.0409 27.1212 36.5057 28.0654 36.5057C29.0078 36.5057 29.0094 35.0409 28.0654 35.0409Z" fill="#F15B40"/>
<path d="M28.9927 39.9667C29.9353 39.9667 29.9368 38.5018 28.9927 38.5018C28.0501 38.5018 28.0485 39.9667 28.9927 39.9667Z" fill="#F15B40"/>
<path d="M31.5263 42.5002C32.4689 42.5002 32.4704 41.0354 31.5263 41.0354C30.5838 41.0354 30.5823 42.5002 31.5263 42.5002Z" fill="#F15B40"/>
<path d="M49.922 40.2871C49.7463 39.9228 49.3085 39.7699 48.9442 39.9454L48.5268 40.1467C48.983 38.7407 49.2141 37.2756 49.2141 35.7732C49.2141 27.9286 42.832 21.5465 34.9874 21.5465C32.3836 21.5465 29.9413 22.2502 27.8397 23.4766L45.4974 7.97227C45.8014 7.70537 45.8315 7.24258 45.5646 6.93867C45.2978 6.63477 44.8349 6.60469 44.531 6.87148L26.2598 22.9145C28.1199 20.5096 29.2286 17.4954 29.2286 14.2268C29.2286 6.38213 22.8466 0 15.0019 0C7.15735 0 0.775223 6.38213 0.775223 14.2269C0.775223 15.7292 1.00628 17.1942 1.46253 18.6002L1.04515 18.3989C0.192118 17.9879 -0.444015 19.3072 0.409012 19.7185L2.43665 20.6961C2.79827 20.8705 3.2722 20.7066 3.43284 20.313L4.28313 18.2287C4.64085 17.352 3.28479 16.7985 2.92679 17.6754L2.80286 17.9791C2.42952 16.7705 2.24007 15.5142 2.24007 14.2269C2.24007 7.18984 7.96497 1.46484 15.0019 1.46484C22.0389 1.46484 27.7639 7.18984 27.7639 14.2269C27.7639 21.2638 22.0389 26.9888 15.0019 26.9888C12.3297 26.9888 9.76917 26.1681 7.59729 24.6151C6.82679 24.0647 5.97493 25.256 6.74524 25.8068C9.16731 27.5383 12.0224 28.4536 15.0019 28.4536C17.6057 28.4536 20.048 27.7499 22.1496 26.5235L4.49192 42.0277C4.18792 42.2946 4.15784 42.7574 4.42473 43.0613C4.56946 43.2262 4.7719 43.3105 4.97542 43.3105C5.147 43.3105 5.31927 43.2506 5.45833 43.1285L23.7295 27.0855C21.8694 29.4904 20.7607 32.5046 20.7607 35.7732C20.7607 43.618 27.1428 50.0001 34.9875 50.0001C37.9671 50.0001 40.8222 49.0849 43.2442 47.3532C44.0146 46.8025 43.1626 45.611 42.3921 46.1617C40.2202 47.7145 37.6597 48.5354 34.9875 48.5354C27.9505 48.5354 22.2255 42.8104 22.2255 35.7733C22.2255 28.7364 27.9505 23.0114 34.9875 23.0114C42.0244 23.0114 47.7493 28.7364 47.7493 35.7733C47.7493 37.0607 47.5599 38.3171 47.1865 39.5257L47.0626 39.222C46.7047 38.3452 45.3486 38.8984 45.7063 39.7753L46.5566 41.8596C46.7173 42.2532 47.1911 42.4171 47.5528 42.2427L49.5804 41.265C49.9446 41.0893 50.0977 40.6515 49.922 40.2871Z" fill="#F15B40"/>
<path d="M36.7763 35.7731C36.7763 34.7867 35.9737 33.9843 34.9874 33.9843C34.5894 33.9843 34.2227 34.1165 33.9251 34.3372L31.9657 33.2378C31.1401 32.7741 30.4231 34.0519 31.2489 34.5154L33.2066 35.6139C33.1402 36.3632 33.5913 37.1201 34.2839 37.4175L34.3348 40.2948C34.351 41.2153 35.8165 41.2332 35.7994 40.2688L35.7485 37.3897C36.3548 37.1029 36.7763 36.487 36.7763 35.7731ZM34.9873 36.0972C34.8087 36.0972 34.6634 35.9519 34.6634 35.7732C34.6634 35.5946 34.8087 35.4493 34.9873 35.4493C35.166 35.4493 35.3113 35.5946 35.3113 35.7732C35.3114 35.9518 35.166 36.0972 34.9873 36.0972Z" fill="#F15B40"/>
</g>
<defs>
<clipPath id="clip0">
<rect width="50" height="50" fill="white"/>
</clipPath>
</defs>
</svg>
