<svg width="50" height="50" viewBox="0 0 50 50" fill="none" xmlns="http://www.w3.org/2000/svg">
<g clip-path="url(#clip0)">
<path d="M46.5297 13.5043C46.4616 10.6402 45.2773 7.97488 43.1949 5.99924C38.9055 1.92978 32.0874 2.09193 27.9961 6.36067L10.0163 25.1375L6.4532 28.8585C4.46839 30.9294 3.41283 33.6454 3.48081 36.5064C3.5488 39.3673 4.73242 42.0302 6.81336 44.0045C6.81434 44.0054 6.81531 44.0062 6.81629 44.0072C6.81766 44.0086 6.81902 44.01 6.82049 44.0113C8.89801 45.9823 11.5684 46.9606 14.2351 46.9606C17.0744 46.9606 19.9095 45.8513 22.0193 43.6499L43.5556 21.1591C45.5415 19.0869 46.5978 16.3684 46.5297 13.5043ZM32.2404 30.8573L30.7138 29.4089C30.0265 28.757 29.018 29.82 29.7053 30.4719L31.227 31.9156L20.9681 42.6292C17.4302 46.3205 11.5349 46.4613 7.82457 42.9439C6.02994 41.2391 5.00935 38.9407 4.95065 36.4714C4.89184 34 5.80361 31.654 7.51814 29.8651L10.8086 26.4288L17.7752 19.1535L26.8862 27.7973C27.5735 28.4493 28.5819 27.3864 27.8947 26.7344L18.7886 18.0952L29.0543 7.37432C30.8771 5.47234 33.3265 4.51398 35.7799 4.51398C38.0841 4.51398 40.3915 5.35932 42.1865 7.06232C43.9839 8.76757 45.0061 11.0678 45.065 13.5392C45.1238 16.0106 44.2121 18.3566 42.4976 20.1456L32.2404 30.8573Z" fill="#F15B40"/>
<path d="M49.1157 44.0385C48.186 43.1565 46.7988 43.0414 45.7486 43.6731L37.6166 35.965L40.7722 32.6723L42.7583 34.5566C42.5296 34.9772 42.4131 35.4516 42.4248 35.9427C42.4425 36.6856 42.7496 37.3771 43.2897 37.8894C43.8286 38.4006 44.521 38.6544 45.2127 38.6544C45.9491 38.6544 46.6844 38.3666 47.2317 37.7958C47.7467 37.2583 48.0207 36.5531 48.0031 35.8102C47.9854 35.0673 47.6783 34.3758 47.1382 33.8633C46.2086 32.9815 44.8216 32.8664 43.7714 33.4979L41.2518 31.1075C40.9594 30.83 40.4976 30.841 40.2186 31.132L36.5531 34.9568L35.0071 33.4914C34.7135 33.213 34.2497 33.2254 33.9713 33.5191C33.6929 33.8128 33.7053 34.2764 33.9991 34.5548L38.3303 38.6603L34.6618 42.4881C34.3823 42.8411 34.3906 43.1872 34.6866 43.5264L37.2015 45.9124C36.616 46.9895 36.8454 48.4032 37.733 49.2454C38.834 50.29 40.6304 50.2415 41.6749 49.1517C42.7172 48.0642 42.6765 46.2584 41.5813 45.2193C40.6517 44.3374 39.2647 44.2223 38.2146 44.8538L36.2293 42.9703L39.3939 39.6683L44.7358 44.7317C44.1504 45.8088 44.3799 47.2224 45.2674 48.0644C46.3683 49.109 48.1647 49.0604 49.2092 47.9707C50.2513 46.8835 50.2109 45.0775 49.1157 44.0385ZM46.1297 34.9264C46.3848 35.1686 46.53 35.4947 46.5384 35.845C46.5467 36.1952 46.4173 36.528 46.1738 36.782C45.669 37.3088 44.8276 37.3287 44.2983 36.8266C44.0432 36.5844 43.898 36.2582 43.8896 35.9079C43.8813 35.5577 44.0108 35.2248 44.2542 34.971C44.5145 34.6993 44.8643 34.5625 45.2147 34.5625C45.5438 34.5626 45.8734 34.6833 46.1297 34.9264ZM40.5728 46.2823C41.0938 46.7765 41.114 47.6196 40.617 48.138C40.1121 48.6648 39.2707 48.6848 38.7415 48.1826C38.2205 47.6884 38.2003 46.8454 38.6973 46.327C39.1971 45.8056 40.0502 45.7865 40.5728 46.2823ZM48.1513 46.957C47.6465 47.4839 46.8051 47.5038 46.2758 47.0016C45.7549 46.5074 45.7347 45.6644 46.2317 45.146C46.7315 44.6245 47.5846 44.6056 48.1072 45.1015C48.628 45.5956 48.6482 46.4386 48.1513 46.957Z" fill="#F15B40"/>
<path d="M6.17099 16.4394L8.69033 18.8295C9.03808 19.1057 9.38251 19.0974 9.72352 18.805L13.3872 14.9823L15.0084 16.5189C15.692 17.1667 16.7065 16.1095 16.0163 15.4554L11.6851 11.3499L15.3536 7.52224C15.6331 7.16931 15.6249 6.82312 15.3289 6.48387L12.814 4.09787C13.3995 3.02092 13.1702 1.60706 12.2826 0.764934C11.1701 -0.290529 9.40175 -0.248525 8.34063 0.858611C7.29835 1.94611 7.33889 3.75188 8.43421 4.79103C9.32302 5.63422 10.7509 5.78837 11.8011 5.15665L13.7862 7.03998L10.6216 10.3419L5.27984 5.27856C5.86525 4.20161 5.63569 2.78794 4.74825 1.94592C3.63574 0.890358 1.86729 0.93246 0.806356 2.0396C0.109975 2.76616 -0.138334 3.81537 0.158426 4.77755C0.277697 5.16417 0.687769 5.38093 1.0744 5.26176C1.46103 5.14249 1.67778 4.73242 1.55861 4.34579C1.41844 3.89156 1.53556 3.39631 1.86416 3.05354C2.36908 2.52674 3.21043 2.50681 3.73977 3.009C4.26071 3.50318 4.28074 4.34618 3.78392 4.86458C3.62577 5.02957 3.43392 5.14718 3.21365 5.21419C2.31936 5.48624 2.77173 6.87997 3.64013 6.61603C3.86021 6.54902 4.07033 6.45456 4.26628 6.33686L12.3237 13.9744L9.17005 17.265L7.18387 15.3807C7.76938 14.3037 7.54002 12.8899 6.65238 12.0479C5.53987 10.9923 3.77152 11.0344 2.71049 12.1416C1.66821 13.229 1.70865 15.0348 2.80397 16.074C3.69278 16.9171 5.12071 17.0711 6.17099 16.4394ZM9.44268 3.72814C8.92174 3.23396 8.90172 2.39086 9.39843 1.87246C9.89828 1.35093 10.7513 1.33208 11.274 1.82792C11.8116 2.33782 11.7673 3.14497 11.3182 3.6835C10.8134 4.2104 9.97203 4.23033 9.44268 3.72814ZM3.40384 14.0921C3.39553 13.7419 3.52496 13.4091 3.76829 13.1551C4.02871 12.8835 4.37842 12.7466 4.72881 12.7466C5.0579 12.7466 5.38748 12.8673 5.6438 13.1106C6.16465 13.6047 6.18477 14.4477 5.68795 14.9662C5.18313 15.4929 4.34179 15.513 3.81235 15.0107C3.5573 14.7686 3.41214 14.4424 3.40384 14.0921Z" fill="#F15B40"/>
<path d="M40.1677 8.75549C39.8816 9.0416 39.8816 9.5055 40.1677 9.79151C42.2816 11.9054 42.2816 15.3448 40.1677 17.4585C39.4979 18.1283 40.5339 19.1643 41.2039 18.4946C43.8889 15.8095 43.8889 11.4405 41.2039 8.75539C40.9177 8.46938 40.4539 8.46938 40.1677 8.75549Z" fill="#F15B40"/>
</g>
<defs>
<clipPath id="clip0">
<rect width="50" height="50" fill="white"/>
</clipPath>
</defs>
</svg>
