<svg width="50" height="50" viewBox="0 0 50 50" fill="none" xmlns="http://www.w3.org/2000/svg">
<g clip-path="url(#clip0)">
<path d="M29.3448 27.8153C29.3448 25.896 27.7851 24.3345 25.8679 24.3345C23.9507 24.3345 22.3909 25.8959 22.3909 27.8153C22.3909 29.7348 23.9507 31.2962 25.8679 31.2962C27.7852 31.2962 29.3448 29.7347 29.3448 27.8153ZM23.8559 27.8153C23.8559 26.7037 24.7585 25.7993 25.868 25.7993C26.9774 25.7993 27.8801 26.7037 27.8801 27.8153C27.8801 28.927 26.9774 29.8314 25.868 29.8314C24.7585 29.8314 23.8559 28.927 23.8559 27.8153Z" fill="#F15B40"/>
<path d="M5.40089 10.7722C3.84239 10.7722 2.57452 12.0415 2.57452 13.6016C2.57452 15.1619 3.84239 16.4311 5.40089 16.4311C6.95939 16.4311 8.22736 15.1619 8.22736 13.6016C8.22736 12.0415 6.95939 10.7722 5.40089 10.7722ZM5.40089 14.9662C4.65011 14.9662 4.03937 14.354 4.03937 13.6015C4.03937 12.8492 4.65011 12.237 5.40089 12.237C6.15167 12.237 6.76251 12.8492 6.76251 13.6015C6.76251 14.354 6.15167 14.9662 5.40089 14.9662Z" fill="#F15B40"/>
<path d="M48.4432 6.85986C47.0506 6.14307 45.2976 6.71338 44.5877 8.09688L42.7873 11.6062L38.5816 10.1434L39.21 5.73525L43.0972 5.74443C46.7861 5.74443 46.8947 0.0244141 43.1622 0.015332L36.7306 0C36.7283 0 36.7262 0 36.7239 0C35.3086 0 34.0917 1.05547 33.8915 2.46064L33.7762 3.29619C33.6467 4.23428 35.0978 4.43457 35.2273 3.49648L35.3421 2.66416C35.4397 1.97988 36.0333 1.46494 36.7238 1.46494H36.7271L43.1587 1.48018C44.9727 1.48467 44.9123 4.27959 43.1007 4.27959L38.5765 4.26895C38.5759 4.26895 38.5753 4.26895 38.5747 4.26895C38.2104 4.26895 37.9012 4.53701 37.8497 4.89795L37.0463 10.5336C36.9969 10.8805 37.1999 11.2137 37.5308 11.3288L42.9076 13.199C43.2525 13.3188 43.6332 13.1666 43.7999 12.8416L45.891 8.76572C46.7157 7.1583 49.2023 8.44522 48.3797 10.0484L45.444 15.7708C45.1322 16.3783 44.3968 16.6792 43.7424 16.4515L37.4686 14.275C37.2619 14.2034 37.0341 14.2277 36.8475 14.3415L34.5005 15.7714C31.6386 17.5146 28.6798 13.0342 31.7084 11.1893L34.0616 9.75547C34.2481 9.6418 34.3742 9.45088 34.4055 9.23477L34.676 7.36416C34.8115 6.42695 33.3617 6.21709 33.2262 7.15459L33.0051 8.68398L31.9504 9.32656H8.74991C6.32188 7.56953 2.66808 7.74678 0.943368 10.4297C-0.725186 12.8508 -0.117569 16.181 2.29981 17.8553L14.035 25.9843C12.4454 26.592 10.6986 27.0689 9.20499 27.8952C8.37638 28.3536 9.08556 29.6359 9.91407 29.177C10.1047 29.0716 10.3003 28.9802 10.4956 28.9057L24.4927 23.5546C25.6261 23.1212 26.8604 23.1556 27.968 23.6516C29.0757 24.1474 29.9239 25.0453 30.3576 26.1831C31.2496 28.5229 30.0732 31.1534 27.7355 32.0471L13.7383 37.3981C11.4228 38.2832 8.75265 37.0778 7.87325 34.7696C7.50147 33.7945 7.47735 32.7125 7.80538 31.7229C8.10333 30.8239 6.7128 30.3631 6.41495 31.262C5.98116 32.5709 6.013 34.002 6.50235 35.2855C7.08272 36.9105 8.46485 38.216 10.073 38.8017V42.1661H8.67384C8.34376 42.1661 8.0545 42.3869 7.96739 42.7053L6.37227 48.5352H4.09913C3.69464 48.5352 3.36671 48.863 3.36671 49.2676C3.36671 49.6722 3.69464 50 4.09913 50H28.8434C29.2479 50 29.5758 49.6722 29.5758 49.2676C29.5758 48.863 29.2479 48.5352 28.8434 48.5352H26.5702L24.9752 42.7053C24.8881 42.3869 24.5988 42.1661 24.2688 42.1661H22.8694V35.4757L28.2587 33.4154C31.3503 32.2335 32.906 28.7551 31.7254 25.658C30.9353 23.5854 29.0011 22.083 26.7976 21.8278L20.7249 17.6213H32.9452C34.5934 17.6891 35.9761 16.5875 37.3148 15.7719L43.2619 17.8351C44.5845 18.2948 46.109 17.6836 46.7474 16.4394L49.6831 10.717C50.4035 9.31269 49.8473 7.58242 48.4432 6.85986ZM25.0515 48.5352H7.89093L9.23272 43.631H23.7097L25.0515 48.5352ZM21.4045 42.1661H11.5379V39.1362C12.4602 39.2266 13.3958 39.0974 14.2614 38.7665L21.4045 36.0357V42.1661ZM23.9696 22.1863L15.6926 25.3507L3.1339 16.6512C1.37813 15.435 0.937606 13.0153 2.15186 11.2575C3.3628 9.54209 5.79513 9.06123 7.54434 10.2731L24.4933 22.0137C24.3173 22.0633 24.1425 22.1202 23.9696 22.1863ZM10.8646 10.7911H29.9457C28.651 12.311 28.6563 14.6347 29.9419 16.1564H18.6102L10.8646 10.7911Z" fill="#F15B40"/>
<path d="M33.0221 14.2515C33.9647 14.2515 33.9662 12.7866 33.0221 12.7866C32.0795 12.7866 32.078 14.2515 33.0221 14.2515Z" fill="#F15B40"/>
</g>
<defs>
<clipPath id="clip0">
<rect width="50" height="50" fill="white"/>
</clipPath>
</defs>
</svg>
