<svg width="40" height="40" viewBox="0 0 40 40" fill="none" xmlns="http://www.w3.org/2000/svg">
<path d="M38.1856 5.44322H34.5568V1.81441C34.5568 1.3332 34.3656 0.871695 34.0254 0.531428C33.6851 0.19116 33.2236 0 32.7424 0C32.2612 0 31.7997 0.19116 31.4594 0.531428C31.1191 0.871695 30.928 1.3332 30.928 1.81441V6.50628L26.5933 10.8411C23.3247 8.22821 19.1795 6.9662 15.0094 7.3143C10.8393 7.6624 6.96071 9.59416 4.17048 12.7128C1.38024 15.8314 -0.109837 19.9001 0.00631397 24.0832C0.122465 28.2662 1.83603 32.246 4.79503 35.205C7.75402 38.164 11.7338 39.8775 15.9168 39.9937C20.0999 40.1098 24.1686 38.6198 27.2872 35.8295C30.4058 33.0393 32.3376 29.1607 32.6857 24.9906C33.0338 20.8205 31.7718 16.6753 29.1589 13.4067L33.4937 9.07204H38.1856C38.6668 9.07204 39.1283 8.88088 39.4686 8.54061C39.8088 8.20034 40 7.73884 40 7.25763C40 6.77642 39.8088 6.31492 39.4686 5.97465C39.1283 5.63438 38.6668 5.44322 38.1856 5.44322ZM29.1136 23.5873C29.1246 26.4611 28.1645 29.2544 26.3889 31.514C24.6133 33.7737 22.1264 35.3672 19.3315 36.0362C16.5366 36.7051 13.5977 36.4103 10.9915 35.1994C8.3852 33.9885 6.26444 31.9327 4.97316 29.3653C3.68188 26.7979 3.29582 23.8696 3.8776 21.0553C4.45937 18.241 5.97486 15.7057 8.17826 13.8608C10.3817 12.0158 13.1437 10.9693 16.0165 10.8911C18.8892 10.8129 21.7042 11.7074 24.0047 13.4297L21.4076 16.0267C19.5268 14.7818 17.2507 14.2799 15.0208 14.6182C12.7909 14.9564 10.7661 16.1108 9.33906 17.8574C7.91206 19.604 7.18457 21.8183 7.29771 24.0709C7.41085 26.3235 8.35654 28.4538 9.95136 30.0486C11.5462 31.6435 13.6765 32.5892 15.9291 32.7023C18.1817 32.8154 20.396 32.0879 22.1426 30.6609C23.8892 29.2339 25.0436 27.2091 25.3818 24.9792C25.7201 22.7493 25.2182 20.4732 23.9733 18.5924L26.5703 15.9953C28.2198 18.1827 29.1125 20.8476 29.1136 23.5873ZM21.8559 23.5873C21.8559 24.6639 21.5367 25.7163 20.9386 26.6114C20.3405 27.5065 19.4904 28.2042 18.4957 28.6162C17.5011 29.0282 16.4067 29.136 15.3508 28.9259C14.2949 28.7159 13.325 28.1975 12.5638 27.4362C11.8025 26.675 11.2841 25.7051 11.0741 24.6492C10.864 23.5933 10.9718 22.4989 11.3838 21.5043C11.7958 20.5096 12.4935 19.6595 13.3886 19.0614C14.2837 18.4633 15.3361 18.1441 16.4127 18.1441C17.2212 18.1484 18.0182 18.3348 18.7448 18.6895L15.1299 22.3045C14.7994 22.6467 14.6165 23.105 14.6207 23.5808C14.6248 24.0565 14.8156 24.5116 15.152 24.848C15.4884 25.1844 15.9435 25.3752 16.4192 25.3793C16.895 25.3835 17.3533 25.2006 17.6955 24.8701L21.3105 21.2552C21.6652 21.9818 21.8516 22.7788 21.8559 23.5873Z" fill="#F15B40"/>
</svg>
