<svg width="31" height="31" viewBox="0 0 31 31" fill="none" xmlns="http://www.w3.org/2000/svg">
<g clip-path="url(#clip0)">
<path fill-rule="evenodd" clip-rule="evenodd" d="M21.4644 11.9551C21.47 12.0873 21.4737 12.2195 21.4737 12.3535C21.4737 16.4195 18.3781 21.1088 12.7175 21.1088C10.9794 21.1088 9.36219 20.5998 8 19.727C8.24094 19.7551 8.48562 19.7692 8.73406 19.7692C10.1759 19.7692 11.5025 19.2779 12.5562 18.452C11.2091 18.4276 10.0728 17.5379 9.68094 16.3154C9.86938 16.351 10.0616 16.3698 10.2603 16.3698C10.5406 16.3698 10.8125 16.3323 11.0712 16.262C9.66313 15.9798 8.60281 14.7357 8.60281 13.2451V13.2057C9.01719 13.4363 9.4925 13.5751 9.99687 13.591C9.17094 13.0388 8.62719 12.0967 8.62719 11.0298C8.62719 10.4654 8.77906 9.93666 9.04438 9.48197C10.5622 11.3438 12.83 12.5692 15.3875 12.6976C15.335 12.4726 15.3078 12.2373 15.3078 11.9963C15.3078 10.2967 16.6859 8.91854 18.3847 8.91854C19.2706 8.91854 20.0703 9.2926 20.6309 9.89072C21.3322 9.75291 21.9913 9.49697 22.5856 9.14447C22.3559 9.8626 21.8675 10.4654 21.2328 10.847C21.8553 10.772 22.4478 10.607 23 10.3623C22.5875 10.9792 22.0653 11.521 21.4644 11.9551ZM15.5 0.0141602C7.21531 0.0141602 0.5 6.72947 0.5 15.0142C0.5 23.2979 7.21531 30.0142 15.5 30.0142C23.7847 30.0142 30.5 23.2979 30.5 15.0142C30.5 6.72947 23.7847 0.0141602 15.5 0.0141602" fill="#41A1F2"/>
</g>
<defs>
<clipPath id="clip0">
<rect width="30" height="30" fill="white" transform="translate(0.5 0.0141602)"/>
</clipPath>
</defs>
</svg>
