<svg width="31" height="31" viewBox="0 0 31 31" fill="none" xmlns="http://www.w3.org/2000/svg">
<g clip-path="url(#clip0)">
<path fill-rule="evenodd" clip-rule="evenodd" d="M23 15.5804C23 16.7945 22.85 18.0085 22.85 18.0085C22.85 18.0085 22.7038 19.0417 22.2537 19.4973C21.6838 20.0945 21.0444 20.0973 20.7509 20.132C18.6519 20.2838 15.5 20.2885 15.5 20.2885C15.5 20.2885 11.6 20.2529 10.4 20.1385C10.0663 20.0757 9.31625 20.0945 8.74625 19.4973C8.29625 19.0417 8.15 18.0085 8.15 18.0085C8.15 18.0085 8 16.7945 8 15.5804V14.4423C8 13.2282 8.15 12.0151 8.15 12.0151C8.15 12.0151 8.29625 10.981 8.74625 10.5254C9.31625 9.92822 9.95563 9.92541 10.2491 9.89072C12.3481 9.73885 15.4972 9.73885 15.4972 9.73885H15.5028C15.5028 9.73885 18.6519 9.73885 20.7509 9.89072C21.0444 9.92541 21.6838 9.92822 22.2537 10.5254C22.7038 10.981 22.85 12.0151 22.85 12.0151C22.85 12.0151 23 13.2282 23 14.4423V15.5804ZM15.5 0.0141602C7.21531 0.0141602 0.5 6.72947 0.5 15.0142C0.5 23.2979 7.21531 30.0142 15.5 30.0142C23.7847 30.0142 30.5 23.2979 30.5 15.0142C30.5 6.72947 23.7847 0.0141602 15.5 0.0141602Z" fill="#EA412C"/>
<path fill-rule="evenodd" clip-rule="evenodd" d="M13.9514 16.9591L18.0042 14.8591L13.9505 12.7441L13.9514 16.9591Z" fill="#EA412C"/>
</g>
<defs>
<clipPath id="clip0">
<rect width="30" height="30" fill="white" transform="translate(0.5 0.0141602)"/>
</clipPath>
</defs>
</svg>
